<?xml version="1.0" encoding="utf-8"?>
<!-- Generator: Adobe Illustrator 19.0.0, SVG Export Plug-In . SVG Version: 6.00 Build 0)  -->
<svg version="1.1" id="Layer_1" xmlns="http://www.w3.org/2000/svg" xmlns:xlink="http://www.w3.org/1999/xlink" x="0px" y="0px"
	 viewBox="0 0 792 612" style="enable-background:new 0 0 792 612;" xml:space="preserve">
<style type="text/css">
	.st0{fill:none;stroke:#939598;stroke-miterlimit:10;}
	.st1{fill:#808285;stroke:#991B1F;stroke-width:1.5;stroke-miterlimit:10;}
	.st2{fill:#808285;stroke:#FACCD2;stroke-width:1.5;stroke-miterlimit:10;}
	.st3{fill:#808285;stroke:#2985C4;stroke-width:1.5;stroke-miterlimit:10;}
	.st4{fill:#808285;stroke:#18B24B;stroke-width:1.5;stroke-miterlimit:10;}
	.st5{fill:#808285;stroke:#FEEA14;stroke-width:1.5;stroke-miterlimit:10;}
	.st6{fill:#808285;stroke:#F6871F;stroke-width:1.5;stroke-miterlimit:10;}
	.st7{stroke:#D81F26;stroke-width:1.5;stroke-miterlimit:10;}
	.st8{fill:#808285;stroke:#2A3178;stroke-width:1.5;stroke-miterlimit:10;}
	.st9{fill:#808285;stroke:#2D8440;stroke-width:1.5;stroke-miterlimit:10;}
	.st10{fill:#808285;stroke:#D5CB27;stroke-width:1.5;stroke-miterlimit:10;}
	.st11{fill:#808285;stroke:#D57129;stroke-width:1.5;stroke-miterlimit:10;}
	.st12{font-family:'Helvetica';}
	.st13{font-size:16px;}
	.st14{fill:#991B1F;stroke:#808285;stroke-miterlimit:10;}
	.st15{fill:#FACCD2;stroke:#808285;stroke-miterlimit:10;}
	.st16{fill:#2985C4;stroke:#808285;stroke-miterlimit:10;}
	.st17{fill:#18B24B;stroke:#808285;stroke-miterlimit:10;}
	.st18{fill:#FEEA14;stroke:#808285;stroke-miterlimit:10;}
	.st19{fill:#F6871F;stroke:#808285;stroke-miterlimit:10;}
	.st20{fill:#D81F26;stroke:#6D6E71;stroke-miterlimit:10;}
	.st21{fill:#2A3178;stroke:#808285;stroke-miterlimit:10;}
	.st22{fill:#2D8440;stroke:#808285;stroke-miterlimit:10;}
	.st23{fill:#D5CB27;stroke:#808285;stroke-miterlimit:10;}
	.st24{fill:#D57129;stroke:#808285;stroke-miterlimit:10;}
	.st25{stroke:#000000;stroke-miterlimit:10;}
	.st26{fill:none;stroke:#000000;stroke-width:1.5;stroke-miterlimit:10;}
	.st27{fill:none;stroke:#939598;stroke-width:3;stroke-miterlimit:10;}
	.st28{fill:none;stroke:#939598;stroke-width:4;stroke-miterlimit:10;}
	.st29{fill:#939598;stroke:#939598;stroke-miterlimit:10;}
	.st30{fill:none;stroke:#808285;stroke-miterlimit:10;}
	.st31{fill:#FFFFFF;}
	.st32{font-size:18px;}
	.st33{fill:#D81F26;stroke:#808285;stroke-miterlimit:10;}
	.st34{fill:#415CAA;stroke:#808285;stroke-miterlimit:10;}
	.st35{fill:#498ECC;stroke:#808285;stroke-miterlimit:10;}
	.st36{fill:#429BD5;stroke:#808285;stroke-miterlimit:10;}
	.st37{fill:#FFFFFF;stroke:#FFFFFF;stroke-width:0.5;stroke-miterlimit:10;}
	.st38{fill:#D57129;stroke:#D57129;stroke-width:0.5;stroke-miterlimit:10;}
	.st39{font-size:10px;}
	.st40{fill:#D5CB27;stroke:#D5CB27;stroke-width:0.5;stroke-miterlimit:10;}
	.st41{fill:#2D8440;stroke:#2D8440;stroke-width:0.5;stroke-miterlimit:10;}
	.st42{fill:#2A3178;stroke:#2A3178;stroke-width:0.5;stroke-miterlimit:10;}
	.st43{fill:#D81F26;stroke:#D81F26;stroke-width:0.5;stroke-miterlimit:10;}
	.st44{fill:#F6871F;stroke:#F6871F;stroke-width:0.5;stroke-miterlimit:10;}
	.st45{fill:#FEEA14;stroke:#FEEA14;stroke-width:0.5;stroke-miterlimit:10;}
	.st46{fill:#18B24B;stroke:#18B24B;stroke-width:0.5;stroke-miterlimit:10;}
	.st47{fill:#FACCD2;stroke:#FACCD2;stroke-width:0.5;stroke-miterlimit:10;}
	.st48{fill:#2985C4;stroke:#2985C4;stroke-width:0.5;stroke-miterlimit:10;}
	.st49{fill:#991B1F;stroke:#991B1F;stroke-width:0.5;stroke-miterlimit:10;}
</style>
<line class="st0" x1="91.8" y1="146" x2="683.6" y2="146"/>
<line class="st0" x1="91.2" y1="156.7" x2="682.6" y2="156.7"/>
<line class="st0" x1="92.8" y1="169.2" x2="683" y2="169.2"/>
<line class="st0" x1="89.8" y1="180.8" x2="682.4" y2="180.8"/>
<line class="st0" x1="83.4" y1="194.2" x2="682.6" y2="194.2"/>
<line class="st0" x1="83.4" y1="207.5" x2="683.6" y2="207.5"/>
<line class="st0" x1="89.6" y1="269.3" x2="682.5" y2="269.3"/>
<line class="st0" x1="88.6" y1="258.6" x2="683.6" y2="258.6"/>
<line class="st0" x1="88.5" y1="247.1" x2="682.5" y2="247.1"/>
<line class="st0" x1="88.5" y1="235.5" x2="683.6" y2="235.5"/>
<line class="st0" x1="82.8" y1="222.2" x2="682.6" y2="222.2"/>
<line class="st1" x1="153.4" y1="128.8" x2="142.4" y2="108.8"/>
<line class="st1" x1="153.4" y1="128.8" x2="164.4" y2="108.8"/>
<line class="st2" x1="683.4" y1="128.8" x2="672.4" y2="108.8"/>
<line class="st2" x1="683.4" y1="128.8" x2="694.4" y2="108.8"/>
<line class="st3" x1="609.4" y1="128.8" x2="598.4" y2="108.8"/>
<line class="st3" x1="609.4" y1="128.8" x2="620.4" y2="108.8"/>
<line class="st4" x1="570.4" y1="128.8" x2="559.4" y2="108.8"/>
<line class="st4" x1="570.4" y1="128.8" x2="581.4" y2="108.8"/>
<line class="st5" x1="495.4" y1="128.8" x2="484.4" y2="108.8"/>
<line class="st5" x1="495.4" y1="128.8" x2="506.4" y2="108.8"/>
<line class="st6" x1="457.4" y1="128.8" x2="446.4" y2="108.8"/>
<line class="st6" x1="457.4" y1="128.8" x2="468.4" y2="108.8"/>
<line class="st7" x1="418.4" y1="128.8" x2="407.4" y2="108.8"/>
<line class="st7" x1="418.4" y1="128.8" x2="429.4" y2="108.8"/>
<line class="st8" x1="343.4" y1="128.8" x2="332.4" y2="108.8"/>
<line class="st8" x1="343.4" y1="128.8" x2="354.4" y2="108.8"/>
<line class="st9" x1="303.4" y1="128.8" x2="292.4" y2="108.8"/>
<line class="st9" x1="303.4" y1="128.8" x2="314.4" y2="108.8"/>
<line class="st10" x1="229.4" y1="128.8" x2="218.4" y2="108.8"/>
<line class="st10" x1="229.4" y1="128.8" x2="240.4" y2="108.8"/>
<line class="st1" x1="153.7" y1="288.9" x2="153.4" y2="127.7"/>
<line class="st2" x1="683.7" y1="288.9" x2="683.4" y2="127.7"/>
<line class="st3" x1="609.7" y1="288.9" x2="609.4" y2="127.7"/>
<line class="st4" x1="570.7" y1="288.9" x2="570.4" y2="127.7"/>
<line class="st5" x1="495.7" y1="288.9" x2="495.4" y2="127.7"/>
<line class="st6" x1="457.7" y1="288.9" x2="457.4" y2="127.7"/>
<line class="st7" x1="418.7" y1="288.9" x2="418.4" y2="127.7"/>
<line class="st8" x1="343.7" y1="288.9" x2="343.4" y2="127.7"/>
<line class="st9" x1="303.7" y1="288.9" x2="303.4" y2="127.7"/>
<line class="st10" x1="229.7" y1="288.9" x2="229.4" y2="127.7"/>
<line class="st11" x1="191.7" y1="288.9" x2="191.4" y2="127.7"/>
<line class="st11" x1="191.4" y1="128.8" x2="180.4" y2="108.8"/>
<line class="st11" x1="191.4" y1="128.8" x2="202.4" y2="108.8"/>
<text transform="matrix(1 0 0 1 142.4099 355.4685)" class="st12 st13">C3</text>
<text transform="matrix(1 0 0 1 522.4099 355.4685)" class="st12 st13">F4</text>
<text transform="matrix(1 0 0 1 486.4099 355.4685)" class="st12 st13">E4</text>
<text transform="matrix(1 0 0 1 446.4099 355.4685)" class="st12 st13">D4</text>
<text transform="matrix(1 0 0 1 408.4099 355.4685)" class="st12 st13">C4</text>
<text transform="matrix(1 0 0 1 371.4099 355.4685)" class="st12 st13">B3</text>
<text transform="matrix(1 0 0 1 333.4099 355.4685)" class="st12 st13">A3</text>
<text transform="matrix(1 0 0 1 294.4099 355.4685)" class="st12 st13">G3</text>
<text transform="matrix(1 0 0 1 256.4099 355.4685)" class="st12 st13">F3</text>
<text transform="matrix(1 0 0 1 218.4099 355.4685)" class="st12 st13">E3</text>
<text transform="matrix(1 0 0 1 179.4099 355.4685)" class="st12 st13">D3</text>
<text transform="matrix(1 0 0 1 675.4099 355.4685)" class="st12 st13">C5</text>
<text transform="matrix(1 0 0 1 636.4099 355.4685)" class="st12 st13">B4</text>
<text transform="matrix(1 0 0 1 598.4099 355.4685)" class="st12 st13">A4</text>
<text transform="matrix(1 0 0 1 560.4099 355.4685)" class="st12 st13">G4</text>
<polygon class="st14" points="138.1,316.9 153.7,282.9 169.2,316.9 "/>
<polygon class="st15" points="668.1,316.9 683.7,282.9 699.2,316.9 "/>
<polygon class="st16" points="594.1,316.9 609.7,282.9 625.2,316.9 "/>
<polygon class="st17" points="555.1,316.9 570.7,282.9 586.2,316.9 "/>
<polygon class="st18" points="480.1,316.9 495.7,282.9 511.2,316.9 "/>
<polygon class="st19" points="442.1,316.9 457.7,282.9 473.2,316.9 "/>
<polygon class="st20" points="403.1,316.9 418.7,282.9 434.2,316.9 "/>
<polygon class="st21" points="328.1,316.9 343.7,282.9 359.2,316.9 "/>
<polygon class="st22" points="288.1,316.9 303.7,282.9 319.2,316.9 "/>
<polygon class="st23" points="214.1,316.9 229.7,282.9 245.2,316.9 "/>
<polygon class="st24" points="176.1,316.9 191.7,282.9 207.2,316.9 "/>
<g>
	<rect x="163.8" y="138.9" class="st25" width="16.7" height="100.2"/>
	<rect x="201.1" y="138.9" class="st25" width="16.7" height="100.2"/>
	<rect x="278.4" y="138.9" class="st25" width="16.7" height="100.2"/>
	<rect x="315.1" y="138.9" class="st25" width="16.7" height="100.2"/>
	<rect x="353.8" y="138.9" class="st25" width="16.7" height="100.2"/>
	<rect x="430.2" y="138.9" class="st25" width="16.7" height="100.2"/>
	<rect x="468.9" y="138.9" class="st25" width="16.7" height="100.2"/>
	<rect x="545.4" y="138.9" class="st25" width="16.7" height="100.2"/>
	<rect x="582" y="138.9" class="st25" width="16.7" height="100.2"/>
	<rect x="620.8" y="138.9" class="st25" width="16.7" height="100.2"/>
	<rect x="694" y="138.9" class="st25" width="10.9" height="100.2"/>
</g>
<g>
	<rect x="133.4" y="138.3" class="st26" width="571.6" height="186"/>
	<line class="st26" x1="172.2" y1="238.3" x2="172.2" y2="324.3"/>
	<line class="st26" x1="210.5" y1="238.3" x2="210.5" y2="324.3"/>
	<line class="st26" x1="284.9" y1="238.3" x2="284.9" y2="324.3"/>
	<line class="st26" x1="324.6" y1="238.3" x2="324.6" y2="324.3"/>
	<line class="st26" x1="362.2" y1="238.3" x2="362.2" y2="324.3"/>
	<line class="st26" x1="438.6" y1="238.3" x2="438.6" y2="324.3"/>
	<line class="st26" x1="477.4" y1="238.3" x2="477.4" y2="324.3"/>
	<line class="st26" x1="552.8" y1="238.3" x2="552.8" y2="324.3"/>
	<line class="st26" x1="590.4" y1="238.3" x2="590.4" y2="324.3"/>
	<line class="st26" x1="629.1" y1="238.3" x2="629.1" y2="324.3"/>
	<line class="st26" x1="248.6" y1="139.1" x2="248.6" y2="324.3"/>
	<line class="st26" x1="399.1" y1="139.1" x2="399.1" y2="324.3"/>
	<line class="st26" x1="517.2" y1="139.1" x2="517.2" y2="324.3"/>
	<line class="st26" x1="664.9" y1="139.1" x2="664.9" y2="324.3"/>
</g>
<line class="st27" x1="33.3" y1="243.9" x2="33.3" y2="306.7"/>
<line class="st27" x1="59.3" y1="333.6" x2="665" y2="333.6"/>
<path class="st27" d="M33.3,306.6c0,15,14,27.1,31.3,27.1"/>
<path class="st27" d="M59.9,212.1c-15,0.3-26.9,14.5-26.5,31.8"/>
<path class="st0" d="M62.3,212.1c0-30.6,14.5-55.4,32.4-55.4"/>
<path class="st0" d="M63.4,208.2c0-21.6,13.2-39,29.4-39"/>
<path class="st0" d="M63.6,210.1c0-16.2,11.7-29.4,26.2-29.4"/>
<path class="st0" d="M63.2,210.4c0-8.9,9-16.2,20.2-16.2"/>
<path class="st0" d="M62.5,204.2c0-32.2,13.1-58.2,29.3-58.2"/>
<line class="st0" x1="64" y1="207.5" x2="83.4" y2="207.5"/>
<path class="st28" d="M64.5,195c0,10.2-6,18.5-13.3,18.5"/>
<path class="st28" d="M64.9,235.2c0-12.8-4.5-23.1-10-23.1"/>
<path class="st0" d="M62.7,211.3c0,26.1,12,47.2,26.9,47.2"/>
<path class="st0" d="M62.5,204.2c0,23.7,11.8,43,26.4,43"/>
<path class="st0" d="M62.5,207.2c0,15.7,11.6,28.3,26,28.3"/>
<path class="st0" d="M60.6,212.1c0,31.6,13,57.2,29,57.2"/>
<path class="st0" d="M63.5,206.8c0,8.5,9.3,15.4,20.8,15.4"/>
<rect x="59.8" y="208" class="st29" width="3.5" height="9"/>
<g>
	<path class="st30" d="M155.7,317.8c0,9.1-7.8,16.5-17.3,16.5"/>
	<path class="st30" d="M193.3,317.8c0,9.1-7.8,16.5-17.3,16.5"/>
	<path class="st30" d="M231,317.4c0,9.1-7.8,16.5-17.3,16.5"/>
	<path class="st30" d="M306,317.8c0,9.1-7.8,16.5-17.3,16.5"/>
	<path class="st30" d="M345.7,317.1c0,9.1-7.8,16.5-17.3,16.5"/>
	<path class="st30" d="M420.3,317.8c0,9.1-7.8,16.5-17.3,16.5"/>
	<path class="st30" d="M458.3,317.4c0,9.1-7.8,16.5-17.3,16.5"/>
	<path class="st30" d="M497,317.1c0,9.1-7.8,16.5-17.3,16.5"/>
	<path class="st30" d="M573,317.8c0,9.1-7.8,16.5-17.3,16.5"/>
	<path class="st30" d="M612,317c0,9.1-7.8,16.5-17.3,16.5"/>
	<path class="st30" d="M685.3,316.3c0,9.5-9.1,17.2-20.3,17.2"/>
</g>
<text transform="matrix(1 0 0 1 148.0002 314.0005)" class="st31 st12 st32">1</text>
<text transform="matrix(1 0 0 1 186.6668 314.0006)" class="st31 st12 st32">2</text>
<text transform="matrix(1 0 0 1 225.0002 314.0006)" class="st31 st12 st32">3</text>
<text transform="matrix(1 0 0 1 298.6668 314.0005)" class="st31 st12 st32">4</text>
<text transform="matrix(1 0 0 1 338.3335 314.0005)" class="st31 st12 st32">5</text>
<text transform="matrix(1 0 0 1 452.6668 314.0006)" class="st31 st12 st32">7</text>
<text transform="matrix(1 0 0 1 490.6668 314.0006)" class="st31 st12 st32">8</text>
<text transform="matrix(1 0 0 1 566.3335 314.0003)" class="st31 st12 st32">9</text>
<text transform="matrix(1 0 0 1 598.3335 314.0006)" class="st31 st12 st32">10</text>
<text transform="matrix(1 0 0 1 675.0002 314.0003)" class="st31 st12 st32">11</text>
<text transform="matrix(1 0 0 1 413.3335 314.0005)" class="st31 st12 st32">6</text>
<path class="st33" d="M460.3,206.9c0,1.7-1.4,3.1-3.1,3.1c-1.7,0-3.1-1.4-3.1-3.1s1.4-3.1,3.1-3.1
	C458.9,203.9,460.3,205.2,460.3,206.9"/>
<path class="st34" d="M573.1,156.8c0,1.7-1.4,3.1-3.1,3.1s-3.1-1.4-3.1-3.1s1.4-3.1,3.1-3.1S573.1,155.1,573.1,156.8"/>
<path class="st15" d="M612.8,145.6c0,1.7-1.4,3.1-3.1,3.1c-1.7,0-3.1-1.4-3.1-3.1s1.4-3.1,3.1-3.1
	C611.5,142.5,612.8,143.9,612.8,145.6"/>
<path class="st33" d="M346.8,206.9c0,1.7-1.4,3.1-3.1,3.1c-1.7,0-3.1-1.4-3.1-3.1s1.4-3.1,3.1-3.1
	C345.4,203.9,346.8,205.2,346.8,206.9"/>
<path class="st19" d="M498.8,194.1c0,1.7-1.4,3.1-3.1,3.1c-1.7,0-3.1-1.4-3.1-3.1s1.4-3.1,3.1-3.1
	C497.4,191,498.8,192.4,498.8,194.1"/>
<path class="st17" d="M686.6,169.2c0,1.7-1.4,3.1-3.1,3.1c-1.7,0-3.1-1.4-3.1-3.1c0-1.7,1.4-3.1,3.1-3.1
	C685.2,166.2,686.6,167.6,686.6,169.2"/>
<path class="st35" d="M460.3,156.8c0,1.7-1.4,3.1-3.1,3.1c-1.7,0-3.1-1.4-3.1-3.1s1.4-3.1,3.1-3.1
	C458.9,153.8,460.3,155.1,460.3,156.8"/>
<path class="st15" d="M498.8,145.6c0,1.7-1.4,3.1-3.1,3.1c-1.7,0-3.1-1.4-3.1-3.1s1.4-3.1,3.1-3.1
	C497.4,142.5,498.8,143.9,498.8,145.6"/>
<path class="st22" d="M612.8,235.7c0,1.7-1.4,3.1-3.1,3.1s-3.1-1.4-3.1-3.1s1.4-3.1,3.1-3.1S612.8,234,612.8,235.7"/>
<path class="st21" d="M498.8,221.7c0,1.7-1.4,3.1-3.1,3.1c-1.7,0-3.1-1.4-3.1-3.1s1.4-3.1,3.1-3.1
	C497.4,218.6,498.8,220,498.8,221.7"/>
<path class="st33" d="M306.5,206.9c0,1.7-1.4,3.1-3.1,3.1c-1.7,0-3.1-1.4-3.1-3.1s1.4-3.1,3.1-3.1
	C305.1,203.9,306.5,205.2,306.5,206.9"/>
<path class="st19" d="M346.8,194.3c0,1.7-1.4,3.1-3.1,3.1c-1.7,0-3.1-1.4-3.1-3.1s1.4-3.1,3.1-3.1
	C345.4,191.3,346.8,192.6,346.8,194.3"/>
<path class="st18" d="M194.8,180.7c0,1.7-1.4,3.1-3.1,3.1s-3.1-1.4-3.1-3.1s1.4-3.1,3.1-3.1S194.8,179,194.8,180.7"/>
<path class="st17" d="M460.3,168.7c0,1.7-1.4,3.1-3.1,3.1c-1.7,0-3.1-1.4-3.1-3.1s1.4-3.1,3.1-3.1
	C458.9,165.7,460.3,167,460.3,168.7"/>
<path class="st36" d="M346.8,156.8c0,1.7-1.4,3.1-3.1,3.1c-1.7,0-3.1-1.4-3.1-3.1s1.4-3.1,3.1-3.1
	C345.4,153.8,346.8,155.1,346.8,156.8"/>
<path class="st15" d="M460.3,145.6c0,1.7-1.4,3.1-3.1,3.1c-1.7,0-3.1-1.4-3.1-3.1s1.4-3.1,3.1-3.1
	C458.9,142.5,460.3,143.9,460.3,145.6"/>
<path class="st23" d="M422.3,246.6c0,1.7-1.4,3.1-3.1,3.1c-1.7,0-3.1-1.4-3.1-3.1s1.4-3.1,3.1-3.1
	C420.9,243.5,422.3,244.9,422.3,246.6"/>
<path class="st22" d="M194.8,235c0,1.7-1.4,3.1-3.1,3.1c-1.7,0-3.1-1.4-3.1-3.1s1.4-3.1,3.1-3.1C193.4,231.9,194.8,233.3,194.8,235"
	/>
<path class="st21" d="M306.5,221.7c0,1.7-1.4,3.1-3.1,3.1c-1.7,0-3.1-1.4-3.1-3.1s1.4-3.1,3.1-3.1
	C305.1,218.6,306.5,220,306.5,221.7"/>
<path class="st33" d="M156.6,206.9c0,1.7-1.4,3.1-3.1,3.1s-3.1-1.4-3.1-3.1s1.4-3.1,3.1-3.1S156.6,205.2,156.6,206.9"/>
<path class="st19" d="M194.8,193.7c0,1.7-1.4,3.1-3.1,3.1c-1.7,0-3.1-1.4-3.1-3.1s1.4-3.1,3.1-3.1
	C193.4,190.6,194.8,192,194.8,193.7"/>
<path class="st18" d="M156.6,180.6c0,1.7-1.4,3.1-3.1,3.1s-3.1-1.4-3.1-3.1s1.4-3.1,3.1-3.1S156.6,178.9,156.6,180.6"/>
<path class="st17" d="M306.5,169c0,1.7-1.4,3.1-3.1,3.1c-1.7,0-3.1-1.4-3.1-3.1s1.4-3.1,3.1-3.1C305.1,165.9,306.5,167.3,306.5,169"
	/>
<path class="st16" d="M232.5,156.8c0,1.7-1.4,3.1-3.1,3.1s-3.1-1.4-3.1-3.1s1.4-3.1,3.1-3.1S232.5,155.1,232.5,156.8"/>
<path class="st15" d="M306.5,145.6c0,1.7-1.4,3.1-3.1,3.1c-1.7,0-3.1-1.4-3.1-3.1s1.4-3.1,3.1-3.1
	C305.1,142.5,306.5,143.9,306.5,145.6"/>
<path class="st23" d="M686.6,246.7c0,1.7-1.4,3.1-3.1,3.1s-3.1-1.4-3.1-3.1s1.4-3.1,3.1-3.1S686.6,245,686.6,246.7"/>
<path class="st23" d="M498.8,246.7c0,1.7-1.4,3.1-3.1,3.1c-1.7,0-3.1-1.4-3.1-3.1s1.4-3.1,3.1-3.1
	C497.4,243.7,498.8,245,498.8,246.7"/>
<path class="st14" d="M612.8,270.1c0,1.7-1.4,3.1-3.1,3.1c-1.7,0-3.1-1.4-3.1-3.1c0-1.7,1.4-3.1,3.1-3.1
	C611.5,267,612.8,268.4,612.8,270.1"/>
<path class="st14" d="M194.8,269.3c0,1.7-1.4,3.1-3.1,3.1c-1.7,0-3.1-1.4-3.1-3.1c0-1.7,1.4-3.1,3.1-3.1
	C193.4,266.2,194.8,267.6,194.8,269.3"/>
<path class="st24" d="M422.3,258.3c0,1.7-1.4,3.1-3.1,3.1c-1.7,0-3.1-1.4-3.1-3.1c0-1.7,1.4-3.1,3.1-3.1
	C420.9,255.3,422.3,256.6,422.3,258.3"/>
<path class="st14" d="M460.3,269.6c0,1.7-1.4,3.1-3.1,3.1c-1.7,0-3.1-1.4-3.1-3.1c0-1.7,1.4-3.1,3.1-3.1
	C458.9,266.5,460.3,267.9,460.3,269.6"/>
<path class="st14" d="M306.5,269.9c0,1.7-1.4,3.1-3.1,3.1c-1.7,0-3.1-1.4-3.1-3.1c0-1.7,1.4-3.1,3.1-3.1
	C305.1,266.9,306.5,268.3,306.5,269.9"/>
<path class="st24" d="M612.8,258.3c0,1.7-1.4,3.1-3.1,3.1c-1.7,0-3.1-1.4-3.1-3.1c0-1.7,1.4-3.1,3.1-3.1
	C611.5,255.3,612.8,256.6,612.8,258.3"/>
<rect x="90.7" y="264" class="st37" width="8" height="11.7"/>
<rect x="90.7" y="250" class="st37" width="8" height="11.7"/>
<rect x="90.7" y="237.7" class="st37" width="8" height="11.7"/>
<rect x="90.7" y="225" class="st37" width="8" height="11.7"/>
<rect x="90.7" y="213.3" class="st37" width="8" height="11.7"/>
<rect x="90.7" y="201.3" class="st37" width="8" height="11.7"/>
<rect x="90.7" y="189" class="st37" width="8" height="11.7"/>
<rect x="90.7" y="176.7" class="st37" width="8" height="11.7"/>
<rect x="90.7" y="164.3" class="st37" width="8" height="11.7"/>
<rect x="89.7" y="152.6" class="st37" width="10.4" height="11.4"/>
<rect x="89.7" y="140.7" class="st37" width="10.1" height="11.7"/>
<text transform="matrix(1 0 0 1 92.0075 261.3332)" class="st38 st12 st39">2</text>
<text transform="matrix(1 0 0 1 92.0075 249.9998)" class="st40 st12 st39">3</text>
<text transform="matrix(1 0 0 1 92.0075 238.3332)" class="st41 st12 st39">4</text>
<text transform="matrix(1 0 0 1 92.0077 225.3332)" class="st42 st12 st39">5</text>
<text transform="matrix(1 0 0 1 92.0077 211.3332)" class="st43 st12 st39">6</text>
<text transform="matrix(1 0 0 1 92.0077 198.3332)" class="st44 st12 st39">7</text>
<text transform="matrix(1 0 0 1 92.0078 184.6665)" class="st45 st12 st39">8</text>
<text transform="matrix(1 0 0 1 92.0079 172.3332)" class="st46 st12 st39">9</text>
<text transform="matrix(1 0 0 1 89.5956 148.3332)" class="st47 st12 st39">11</text>
<text transform="matrix(1 0 0 1 89.2271 159.9998)" class="st48 st12 st39">10</text>
<text transform="matrix(1 0 0 1 92.0076 273.3332)" class="st49 st12 st39">1</text>
</svg>
